<svg width="327" height="84" viewBox="0 0 327 84" fill="none" xmlns="http://www.w3.org/2000/svg">
<path d="M99.0744 46.0673C96.9037 45.455 95.225 44.522 94.0094 43.2974C92.7939 42.0728 92.1861 40.236 92.1861 37.7868C92.1861 34.842 93.228 32.5095 95.3408 30.8476C97.4536 29.1856 100.319 28.3401 103.937 28.3401C105.442 28.3401 106.918 28.4859 108.394 28.7483C109.87 29.0107 111.346 29.4189 112.851 29.9729C112.764 30.9933 112.591 32.043 112.272 33.1218C111.954 34.2005 111.607 35.1627 111.172 35.9791C110.246 35.6001 109.233 35.2502 108.105 34.9586C106.976 34.6671 105.818 34.5213 104.574 34.5213C103.271 34.5213 102.229 34.7254 101.506 35.1336C100.782 35.5417 100.406 36.1832 100.406 37.087C100.406 37.9326 100.666 38.5449 101.187 38.8947C101.708 39.2446 102.461 39.5654 103.416 39.8861L106.715 40.8774C107.786 41.1981 108.77 41.5772 109.638 42.0145C110.507 42.4518 111.259 43.0058 111.867 43.6764C112.475 44.347 112.967 45.1634 113.314 46.1256C113.662 47.0877 113.835 48.2831 113.835 49.6827C113.835 51.1113 113.546 52.4525 112.938 53.7063C112.33 54.96 111.462 56.0388 110.333 56.9426C109.204 57.8465 107.815 58.5754 106.194 59.1002C104.574 59.625 102.75 59.8874 100.695 59.8874C99.769 59.8874 98.9297 59.8583 98.1483 59.8C97.3668 59.7417 96.6432 59.6542 95.9197 59.5084C95.1961 59.3626 94.5015 59.2168 93.8069 59.0128C93.1122 58.8087 92.3597 58.5754 91.5493 58.2547C91.6361 57.205 91.8098 56.1554 92.0992 55.0766C92.3887 53.9978 92.7649 52.9774 93.228 51.9569C94.5015 52.4525 95.7171 52.8316 96.8458 53.094C97.9746 53.3564 99.1612 53.473 100.406 53.473C100.956 53.473 101.535 53.4147 102.171 53.3272C102.808 53.2398 103.387 53.0648 103.937 52.8024C104.487 52.54 104.921 52.2193 105.297 51.8111C105.673 51.4029 105.847 50.8781 105.847 50.2075C105.847 49.2745 105.558 48.6039 105.008 48.1957C104.458 47.7875 103.676 47.4376 102.663 47.1169L99.0744 46.0673Z" fill="white"/>
<path d="M116.266 29.0983C117.164 28.8942 118.003 28.7775 118.784 28.7484C119.566 28.7192 120.232 28.6901 120.782 28.6901C121.563 28.6901 122.316 28.7192 123.039 28.7484C123.763 28.7775 124.457 28.8942 125.123 29.0399L129.927 51.3155L135.484 29.0399C136.671 28.8067 138.002 28.6901 139.421 28.6901C140.434 28.7192 141.244 28.7775 141.91 28.8067C142.575 28.8358 143.154 28.9233 143.646 29.0399L149.087 50.9073L153.834 29.0399C154.5 28.9233 155.108 28.8358 155.686 28.7775C156.265 28.7192 156.931 28.6901 157.655 28.6901C158.204 28.6901 158.841 28.7192 159.594 28.7484C160.346 28.7775 161.186 28.8942 162.112 29.0983L152.792 59.1878C152.098 59.3044 151.345 59.3919 150.564 59.421C149.782 59.4502 149.116 59.4794 148.567 59.4794C147.988 59.4794 147.351 59.4502 146.627 59.421C145.904 59.3919 145.238 59.2753 144.572 59.1295L139.131 39.1864L133.516 59.1878C132.793 59.3044 132.011 59.3919 131.23 59.421C130.448 59.4502 129.783 59.4794 129.233 59.4794C128.683 59.4794 128.075 59.4502 127.352 59.421C126.628 59.3919 125.962 59.2753 125.297 59.1295L116.266 29.0983Z" fill="white"/>
<path d="M168.189 35.3377H164.311C164.195 34.8421 164.108 34.2881 164.051 33.7341C163.993 33.1801 163.964 32.6262 163.964 32.1305C163.964 31.0809 164.08 30.0604 164.311 29.0399H176.235V59.1878C174.846 59.421 173.486 59.5376 172.183 59.5376C170.91 59.5376 169.579 59.421 168.189 59.1878V35.3377ZM166.974 23.9667C166.742 22.6546 166.626 21.3426 166.626 20.0597C166.626 18.806 166.742 17.5231 166.974 16.1527C167.639 16.0361 168.334 15.9486 169.087 15.8903C169.839 15.832 170.534 15.8029 171.142 15.8029C171.807 15.8029 172.502 15.832 173.283 15.8903C174.065 15.9486 174.759 16.0361 175.425 16.1527C175.541 16.8233 175.628 17.4648 175.657 18.1062C175.686 18.7477 175.714 19.3891 175.714 20.0597C175.714 20.672 175.686 21.3134 175.657 21.984C175.628 22.6546 175.541 23.2961 175.425 23.9667C174.759 24.0833 174.065 24.1708 173.312 24.1999C172.56 24.2291 171.865 24.2582 171.199 24.2582C170.592 24.2582 169.897 24.2291 169.116 24.1999C168.363 24.1708 167.639 24.0833 166.974 23.9667Z" fill="white"/>
<path d="M185.15 35.3376H181.387L181.098 34.1713L191.922 20.2345H193.254V29.0398H200.258C200.374 29.6229 200.46 30.1477 200.489 30.6142C200.518 31.0807 200.547 31.5764 200.547 32.0721C200.547 32.626 200.518 33.1508 200.489 33.6465C200.46 34.1422 200.374 34.7253 200.258 35.3376H193.254V47.1751C193.254 48.3706 193.341 49.3619 193.543 50.0908C193.746 50.8197 194.006 51.4028 194.383 51.8402C194.759 52.2775 195.193 52.5691 195.743 52.7149C196.293 52.8607 196.929 52.9481 197.653 52.9481C198.232 52.9481 198.811 52.8898 199.361 52.8024C199.911 52.7149 200.403 52.6274 200.837 52.5399C201.097 53.2689 201.3 54.0561 201.416 54.8433C201.531 55.6305 201.589 56.3594 201.589 56.9717C201.589 57.4091 201.589 57.759 201.56 58.0505C201.531 58.3421 201.502 58.6337 201.473 58.8961C199.708 59.3334 197.856 59.5375 195.974 59.5375C192.472 59.5375 189.781 58.7211 187.928 57.0592C186.076 55.3973 185.15 52.7149 185.15 48.9828V35.3376Z" fill="white"/>
<path d="M226.596 52.0735C227.059 52.8607 227.435 53.7646 227.754 54.7851C228.072 55.8055 228.217 57.0301 228.217 58.4296C226.683 59.0419 225.236 59.4501 223.875 59.625C222.515 59.8 221.126 59.8874 219.65 59.8874C217.132 59.8874 214.961 59.4793 213.109 58.692C211.256 57.9048 209.722 56.7969 208.507 55.3973C207.291 53.9978 206.365 52.3359 205.757 50.4116C205.149 48.4872 204.831 46.388 204.831 44.1429C204.831 41.927 205.12 39.8569 205.728 37.9617C206.336 36.0666 207.233 34.3755 208.449 32.9468C209.664 31.5181 211.169 30.381 212.993 29.5647C214.816 28.7483 216.9 28.3401 219.302 28.3401C220.142 28.3401 220.923 28.3692 221.647 28.3984C222.37 28.4276 223.036 28.515 223.702 28.6317C224.367 28.7483 225.004 28.8941 225.67 29.0982C226.335 29.3023 227.059 29.5355 227.869 29.8562C227.869 30.7601 227.754 31.7514 227.522 32.8593C227.29 33.9673 226.914 35.0169 226.422 36.0374C225.264 35.6584 224.251 35.396 223.383 35.2502C222.515 35.1044 221.531 35.0461 220.402 35.0461C218 35.0461 216.205 35.8333 214.99 37.4078C213.774 38.9822 213.166 41.2273 213.166 44.1429C213.166 47.2918 213.832 49.5952 215.135 51.0239C216.437 52.4525 218.231 53.1814 220.46 53.1814C221.039 53.1814 221.56 53.1814 222.052 53.1523C222.544 53.1231 223.007 53.094 223.47 53.0065C223.933 52.919 224.396 52.8024 224.888 52.6566C225.38 52.5108 225.959 52.3068 226.596 52.0735Z" fill="white"/>
<path d="M233.889 16.5609C234.555 16.4442 235.221 16.3568 235.915 16.3276C236.61 16.2984 237.276 16.2693 237.941 16.2693C238.607 16.2693 239.273 16.2984 239.967 16.3276C240.662 16.3568 241.356 16.4442 242.051 16.5609V32.597C242.312 32.2471 242.688 31.8389 243.122 31.3432C243.556 30.8476 244.106 30.3811 244.772 29.9437C245.437 29.5064 246.219 29.1273 247.145 28.8066C248.071 28.4859 249.142 28.3401 250.329 28.3401C253.657 28.3401 256.175 29.2731 257.883 31.1391C259.59 33.0051 260.459 35.95 260.459 39.9444V59.246C259.764 59.3627 259.069 59.4501 258.375 59.4793C257.68 59.5084 257.014 59.5376 256.349 59.5376C255.683 59.5376 255.017 59.5084 254.323 59.4793C253.628 59.4501 252.934 59.3627 252.239 59.246V42.1603C252.239 40.061 251.921 38.4574 251.255 37.3203C250.589 36.1832 249.489 35.6292 247.898 35.6292C247.232 35.6292 246.566 35.7167 245.872 35.9208C245.177 36.1249 244.54 36.5039 243.99 37.0579C243.44 37.6119 242.977 38.3991 242.601 39.4196C242.225 40.4401 242.051 41.7521 242.051 43.3849V59.246C241.356 59.3627 240.662 59.4501 239.967 59.4793C239.273 59.5084 238.607 59.5376 237.941 59.5376C237.276 59.5376 236.61 59.5084 235.944 59.4793C235.279 59.4501 234.584 59.3627 233.889 59.246V16.5609Z" fill="white"/>
<path d="M280.545 59.8873C278.23 59.8873 276.204 59.4792 274.467 58.6919C272.731 57.9047 271.283 56.7968 270.126 55.3972C268.968 53.9977 268.1 52.3358 267.55 50.4406C267 48.5455 266.71 46.4753 266.71 44.2595C266.71 42.0436 267 39.9734 267.55 38.0783C268.1 36.1831 268.968 34.5212 270.126 33.1217C271.283 31.7221 272.731 30.6142 274.467 29.7978C276.204 28.9814 278.23 28.5732 280.545 28.5732C282.86 28.5732 284.886 28.9814 286.623 29.7978C288.36 30.6142 289.807 31.7221 290.964 33.1217C292.122 34.5212 292.99 36.1831 293.54 38.0783C294.09 39.9734 294.38 42.0436 294.38 44.2595C294.38 46.4753 294.09 48.5455 293.54 50.4406C292.99 52.3358 292.122 53.9977 290.964 55.3972C289.807 56.7968 288.36 57.9047 286.623 58.6919C284.886 59.4792 282.86 59.8873 280.545 59.8873ZM280.545 55.2806C283.208 55.2806 285.176 54.3185 286.449 52.365C287.723 50.4115 288.36 47.7291 288.36 44.2595C288.36 40.7898 287.723 38.1074 286.449 36.1831C285.176 34.2588 283.208 33.2966 280.545 33.2966C277.882 33.2966 275.914 34.2588 274.67 36.1831C273.425 38.1074 272.788 40.7898 272.788 44.2595C272.788 47.7291 273.425 50.4115 274.67 52.365C275.943 54.3185 277.882 55.2806 280.545 55.2806Z" fill="white"/>
<path d="M301.904 29.273C302.339 29.1855 302.744 29.1272 303.149 29.0981C303.554 29.0689 303.959 29.0397 304.394 29.0397C304.828 29.0397 305.204 29.0689 305.58 29.0981C305.956 29.1272 306.333 29.1855 306.767 29.273C306.883 29.8561 306.998 30.6434 307.114 31.6347C307.23 32.626 307.288 33.4424 307.288 34.113C307.664 33.4424 308.156 32.8009 308.764 32.1303C309.372 31.4597 310.037 30.8766 310.819 30.3518C311.6 29.827 312.468 29.3896 313.481 29.0689C314.494 28.7482 315.594 28.5732 316.781 28.5732C320.167 28.5732 322.685 29.5646 324.306 31.5181C325.927 33.4715 326.737 36.3872 326.737 40.2359V59.1876C326.303 59.2751 325.84 59.3334 325.29 59.3625C324.74 59.3917 324.277 59.4208 323.843 59.4208C323.409 59.4208 322.946 59.3917 322.425 59.3625C321.904 59.3334 321.441 59.2751 321.007 59.1876V41.8103C321.007 39.0404 320.572 37.0286 319.733 35.7166C318.894 34.4045 317.533 33.7631 315.681 33.7631C314.61 33.7631 313.568 33.9672 312.613 34.3462C311.658 34.7253 310.79 35.3376 310.066 36.1539C309.343 36.9703 308.735 38.02 308.301 39.332C307.867 40.644 307.635 42.1893 307.635 44.0262V59.1876C307.201 59.2751 306.738 59.3334 306.217 59.3625C305.696 59.3917 305.233 59.4208 304.799 59.4208C304.365 59.4208 303.901 59.3917 303.352 59.3625C302.802 59.3334 302.339 59.2751 301.904 59.1876V29.273Z" fill="white"/>
<path d="M21.9965 9.70906C23.1953 9.70906 24.1672 8.73002 24.1672 7.52231C24.1672 6.31461 23.1953 5.33557 21.9965 5.33557C20.7977 5.33557 19.8258 6.31461 19.8258 7.52231C19.8258 8.73002 20.7977 9.70906 21.9965 9.70906Z" fill="white"/>
<path d="M7.46721 24.3457C8.66605 24.3457 9.63791 23.3667 9.63791 22.1589C9.63791 20.9512 8.66605 19.9722 7.46721 19.9722C6.26836 19.9722 5.29651 20.9512 5.29651 22.1589C5.29651 23.3667 6.26836 24.3457 7.46721 24.3457Z" fill="white"/>
<path d="M2.17071 44.2889C3.36956 44.2889 4.34143 43.3099 4.34143 42.1021C4.34143 40.8944 3.36956 39.9154 2.17071 39.9154C0.971861 39.9154 0 40.8944 0 42.1021C0 43.3099 0.971861 44.2889 2.17071 44.2889Z" fill="white"/>
<path d="M22.3437 78.8101C23.5425 78.8101 24.5144 77.8311 24.5144 76.6234C24.5144 75.4157 23.5425 74.4366 22.3437 74.4366C21.1448 74.4366 20.173 75.4157 20.173 76.6234C20.173 77.8311 21.1448 78.8101 22.3437 78.8101Z" fill="white"/>
<path d="M42.0826 84.0001C43.2814 84.0001 44.2533 83.021 44.2533 81.8133C44.2533 80.6056 43.2814 79.6266 42.0826 79.6266C40.8837 79.6266 39.9119 80.6056 39.9119 81.8133C39.9119 83.021 40.8837 84.0001 42.0826 84.0001Z" fill="white"/>
<path d="M61.7347 78.5186C62.9335 78.5186 63.9054 77.5396 63.9054 76.3319C63.9054 75.1242 62.9335 74.1451 61.7347 74.1451C60.5358 74.1451 59.564 75.1242 59.564 76.3319C59.564 77.5396 60.5358 78.5186 61.7347 78.5186Z" fill="white"/>
<path d="M80.9815 44.0556C82.1803 44.0556 83.1522 43.0765 83.1522 41.8688C83.1522 40.6612 82.1803 39.6821 80.9815 39.6821C79.7826 39.6821 78.8108 40.6612 78.8108 41.8688C78.8108 43.0765 79.7826 44.0556 80.9815 44.0556Z" fill="white"/>
<path d="M75.6273 24.3457C76.8261 24.3457 77.798 23.3667 77.798 22.1589C77.798 20.9512 76.8261 19.9722 75.6273 19.9722C74.4284 19.9722 73.4565 20.9512 73.4565 22.1589C73.4565 23.3667 74.4284 24.3457 75.6273 24.3457Z" fill="white"/>
<path d="M63.2651 8.4098C63.6066 7.25209 62.9519 6.03466 61.8027 5.69058C60.6535 5.34651 59.445 6.00609 59.1034 7.16379C58.7619 8.3215 59.4166 9.53894 60.5658 9.88301C61.715 10.2271 62.9235 9.56751 63.2651 8.4098Z" fill="white"/>
<path d="M61.9854 7.52523L1.59656 41.9875L2.0816 42.8501L62.4705 8.38778L61.9854 7.52523Z" fill="white"/>
<path d="M81.7816 41.8534L21.3927 76.3157L21.8777 77.1782L82.2666 42.7159L81.7816 41.8534Z" fill="white"/>
<path d="M82.0041 41.2181L61.0311 6.97729L60.243 7.46722L81.2159 41.7081L82.0041 41.2181Z" fill="white"/>
<path d="M22.8038 76.3988L1.83081 42.158L1.04264 42.6479L22.0156 76.8887L22.8038 76.3988Z" fill="white"/>
<path d="M76.4933 21.4663L7.08875 21.8611L7.0943 22.8524L76.4988 22.4576L76.4933 21.4663Z" fill="white"/>
<path d="M7.48574 62.2682L7.61719 22.0322L6.69102 22.0292L6.55957 62.2652L7.48574 62.2682Z" fill="white"/>
<path d="M76.4075 62.1156L76.5389 21.8796L75.6128 21.8766L75.4813 62.1126L76.4075 62.1156Z" fill="white"/>
<path d="M81.8686 42.7297L22.3264 6.79919L21.8207 7.64965L81.3629 43.5802L81.8686 42.7297Z" fill="white"/>
<path d="M62.0716 77.0592L2.52942 41.1287L2.02371 41.9791L61.5659 77.9097L62.0716 77.0592Z" fill="white"/>
<path d="M2.10818 42.0109L22.5819 7.46021L21.7866 6.98195L1.31288 41.5326L2.10818 42.0109Z" fill="white"/>
<path d="M61.9784 77.0214L82.4521 42.4707L81.6569 41.9924L61.1831 76.5431L61.9784 77.0214Z" fill="white"/>
<path d="M43.3443 82.3098L7.948 22.1669L7.10152 22.6724L42.4978 82.8154L43.3443 82.3098Z" fill="white"/>
<path d="M7.33663 22.4349L41.8695 2.22034L41.4042 1.41366L6.87133 21.6282L7.33663 22.4349Z" fill="white"/>
<path d="M41.9297 82.0123L76.4625 61.7977L75.9972 60.9911L41.4643 81.2056L41.9297 82.0123Z" fill="white"/>
<path d="M63.2211 77.0937L61.858 7.19031L60.8742 7.20978L62.2372 77.1132L63.2211 77.0937Z" fill="white"/>
<path d="M23.5252 77.9083L22.1621 8.00488L21.1783 8.02435L22.5413 77.9278L23.5252 77.9083Z" fill="white"/>
<path d="M21.8507 8.16881L61.7797 7.13037L61.7558 6.19765L21.8268 7.23608L21.8507 8.16881Z" fill="white"/>
<path d="M22.6143 77.8971L62.5432 76.8586L62.5193 75.9259L22.5904 76.9644L22.6143 77.8971Z" fill="white"/>
<path d="M42.0334 83.5944L76.0277 22.6404L75.1698 22.1548L41.1755 83.1088L42.0334 83.5944Z" fill="white"/>
<path d="M7.94084 62.7432L41.9352 1.78918L41.0773 1.30363L7.08295 62.2577L7.94084 62.7432Z" fill="black"/>
<path d="M76.038 22.3054L42.324 0.730835L41.8274 1.51839L75.5414 23.093L76.038 22.3054Z" fill="white"/>
<path d="M41.7666 82.3326L7.74097 61.261L7.25593 62.0558L41.2816 83.1274L41.7666 82.3326Z" fill="white"/>
<path d="M41.7931 4.37349C42.992 4.37349 43.9639 3.39445 43.9639 2.18674C43.9639 0.979038 42.992 0 41.7931 0C40.5943 0 39.6224 0.979038 39.6224 2.18674C39.6224 3.39445 40.5943 4.37349 41.7931 4.37349Z" fill="black"/>
<path d="M7.66985 64.2319C8.86869 64.2319 9.84055 63.2528 9.84055 62.0451C9.84055 60.8374 8.86869 59.8584 7.66985 59.8584C6.471 59.8584 5.49915 60.8374 5.49915 62.0451C5.49915 63.2528 6.471 64.2319 7.66985 64.2319Z" fill="black"/>
<path d="M76.4933 61.3531L7.08875 61.7479L7.0943 62.7393L76.4988 62.3444L76.4933 61.3531Z" fill="black"/>
<path d="M76.0613 63.9111C77.2601 63.9111 78.232 62.932 78.232 61.7243C78.232 60.5166 77.2601 59.5376 76.0613 59.5376C74.8625 59.5376 73.8906 60.5166 73.8906 61.7243C73.8906 62.932 74.8625 63.9111 76.0613 63.9111Z" fill="black"/>
<path d="M77.6847 62.3268L42.2885 2.18384L41.442 2.68941L76.8383 62.8323L77.6847 62.3268Z" fill="black"/>
</svg>
