<svg width="30" height="30" viewBox="0 0 30 30" fill="none" xmlns="http://www.w3.org/2000/svg">
<path d="M7.93149 3.46668C8.36592 3.46668 8.71809 3.11527 8.71809 2.68178C8.71809 2.24829 8.36592 1.89688 7.93149 1.89688C7.49707 1.89688 7.1449 2.24829 7.1449 2.68178C7.1449 3.11527 7.49707 3.46668 7.93149 3.46668Z" fill="white"/>
<path d="M2.70933 8.69906C3.14376 8.69906 3.49593 8.34765 3.49593 7.91418C3.49593 7.4807 3.14376 7.1293 2.70933 7.1293C2.2749 7.1293 1.92273 7.4807 1.92273 7.91418C1.92273 8.34765 2.2749 8.69906 2.70933 8.69906Z" fill="white"/>
<path d="M0.7866 15.8285C1.22103 15.8285 1.57319 15.4771 1.57319 15.0436C1.57319 14.6101 1.22103 14.2587 0.7866 14.2587C0.352173 14.2587 0 14.6101 0 15.0436C0 15.4771 0.352173 15.8285 0.7866 15.8285Z" fill="white"/>
<path d="M8.06274 28.1469C8.49718 28.1469 8.84936 27.7954 8.84936 27.362C8.84936 26.9285 8.49718 26.5771 8.06274 26.5771C7.62831 26.5771 7.27612 26.9285 7.27612 27.362C7.27612 27.7954 7.62831 28.1469 8.06274 28.1469Z" fill="white"/>
<path d="M15.1858 30C15.6202 30 15.9724 29.6486 15.9724 29.2151C15.9724 28.7817 15.6202 28.4303 15.1858 28.4303C14.7514 28.4303 14.3992 28.7817 14.3992 29.2151C14.3992 29.6486 14.7514 30 15.1858 30Z" fill="white"/>
<path d="M22.2869 28.0596C22.7214 28.0596 23.0735 27.7082 23.0735 27.2747C23.0735 26.8413 22.7214 26.4899 22.2869 26.4899C21.8525 26.4899 21.5004 26.8413 21.5004 27.2747C21.5004 27.7082 21.8525 28.0596 22.2869 28.0596Z" fill="white"/>
<path d="M29.2134 15.7413C29.6478 15.7413 30 15.3899 30 14.9564C30 14.5229 29.6478 14.1715 29.2134 14.1715C28.7789 14.1715 28.4268 14.5229 28.4268 14.9564C28.4268 15.3899 28.7789 15.7413 29.2134 15.7413Z" fill="white"/>
<path d="M27.2906 8.69906C27.7251 8.69906 28.0773 8.34765 28.0773 7.91418C28.0773 7.4807 27.7251 7.1293 27.2906 7.1293C26.8562 7.1293 26.504 7.4807 26.504 7.91418C26.504 8.34765 26.8562 8.69906 27.2906 8.69906Z" fill="white"/>
<path d="M22.8423 3.01332C22.966 2.59779 22.7288 2.16081 22.3123 2.03732C21.8959 1.91382 21.458 2.15057 21.3342 2.5661C21.2104 2.98163 21.4477 3.4186 21.8641 3.54209C22.2806 3.66559 22.7185 3.42886 22.8423 3.01332Z" fill="white"/>
<path d="M22.3551 2.7151L0.582153 15.0115L0.754586 15.315L22.5276 3.01856L22.3551 2.7151Z" fill="white"/>
<path d="M29.5104 14.9508L7.74207 27.2555L7.91438 27.559L29.6827 15.2544L29.5104 14.9508Z" fill="white"/>
<path d="M29.5921 14.719L22.0311 2.49207L21.7522 2.66379L29.3132 14.8907L29.5921 14.719Z" fill="white"/>
<path d="M8.23879 27.285L0.672974 15.061L0.393991 15.2327L7.9598 27.4567L8.23879 27.285Z" fill="white"/>
<path d="M27.5973 7.66941L2.5791 7.81036L2.58108 8.15918L27.5993 8.01822L27.5973 7.66941Z" fill="white"/>
<path d="M2.71384 22.2382L2.76123 7.87048L2.43317 7.86941L2.38578 22.2372L2.71384 22.2382Z" fill="white"/>
<path d="M27.5603 22.1756L27.6077 7.80783L27.2796 7.80675L27.2323 22.1745L27.5603 22.1756Z" fill="white"/>
<path d="M29.5382 15.2736L8.07507 2.44476L7.89541 2.74403L29.3585 15.5729L29.5382 15.2736Z" fill="white"/>
<path d="M22.3781 27.5175L0.914917 14.6887L0.735257 14.988L22.1984 27.8168L22.3781 27.5175Z" fill="white"/>
<path d="M0.760836 15.0065L8.14185 2.66898L7.86041 2.50134L0.479397 14.8389L0.760836 15.0065Z" fill="white"/>
<path d="M22.3585 27.508L29.7395 15.1704L29.4581 15.0027L22.0771 27.3403L22.3585 27.508Z" fill="white"/>
<path d="M28.0288 22.2546L15.2695 0.780853L14.9688 0.95876L27.7281 22.4325L28.0288 22.2546Z" fill="#4FBA6F"/>
<path d="M15.6249 29.3925L2.8656 7.9187L2.56487 8.09661L15.3242 29.5704L15.6249 29.3925Z" fill="white"/>
<path d="M2.66573 8.00475L15.1152 0.786438L14.9506 0.503685L2.50106 7.72199L2.66573 8.00475Z" fill="white"/>
<path d="M15.1329 29.2999L27.5824 22.0816L27.4177 21.7989L14.9683 29.0172L15.1329 29.2999Z" fill="white"/>
<path d="M22.8244 27.5266L22.333 2.56796L21.9832 2.57482L22.4745 27.5335L22.8244 27.5266Z" fill="white"/>
<path d="M8.48536 27.8265L7.99402 2.86774L7.64418 2.87459L8.13552 27.8333L8.48536 27.8265Z" fill="white"/>
<path d="M7.88815 2.92543L22.283 2.55463L22.2745 2.2277L7.87969 2.5985L7.88815 2.92543Z" fill="white"/>
<path d="M8.17254 27.8247L22.5674 27.4538L22.5589 27.1269L8.16408 27.4977L8.17254 27.8247Z" fill="white"/>
<path d="M15.1699 29.8525L27.4238 8.0892L27.119 7.91834L14.8651 29.6817L15.1699 29.8525Z" fill="white"/>
<path d="M2.89234 22.3948L15.1462 0.6315L14.8415 0.460639L2.58756 22.224L2.89234 22.3948Z" fill="#4FBA6F"/>
<path d="M27.4385 7.97161L15.2842 0.267639L15.1084 0.543689L27.2627 8.24766L27.4385 7.97161Z" fill="white"/>
<path d="M15.0616 29.3974L2.79504 21.873L2.6234 22.1516L14.89 29.676L15.0616 29.3974Z" fill="white"/>
<path d="M15.0764 1.56975C15.5108 1.56975 15.863 1.21835 15.863 0.784877C15.863 0.351401 15.5108 0 15.0764 0C14.642 0 14.2898 0.351401 14.2898 0.784877C14.2898 1.21835 14.642 1.56975 15.0764 1.56975Z" fill="#4FBA6F"/>
<path d="M2.775 22.9361C3.20942 22.9361 3.5616 22.5847 3.5616 22.1512C3.5616 21.7177 3.20942 21.3663 2.775 21.3663C2.34057 21.3663 1.9884 21.7177 1.9884 22.1512C1.9884 22.5847 2.34057 22.9361 2.775 22.9361Z" fill="#4FBA6F"/>
<path d="M27.5972 21.9067L2.57898 22.0476L2.58095 22.3965L27.5992 22.2555L27.5972 21.9067Z" fill="#4FBA6F"/>
<path d="M27.4436 22.8271C27.878 22.8271 28.2302 22.4757 28.2302 22.0422C28.2302 21.6087 27.878 21.2573 27.4436 21.2573C27.0092 21.2573 26.657 21.6087 26.657 22.0422C26.657 22.4757 27.0092 22.8271 27.4436 22.8271Z" fill="#4FBA6F"/>
</svg>
